<mxfile host="65bd71144e">
    <diagram id="wzC8jgqT3XkmynK94-LP" name="Страница 1">
        <mxGraphModel dx="1044" dy="1269" grid="0" gridSize="10" guides="1" tooltips="1" connect="1" arrows="1" fold="1" page="1" pageScale="1" pageWidth="827" pageHeight="1169" background="none" math="0" shadow="0">
            <root>
                <mxCell id="0"/>
                <mxCell id="1" parent="0"/>
                <mxCell id="243" style="edgeStyle=none;rounded=0;html=1;exitX=0.5;exitY=0.5;exitDx=0;exitDy=15;exitPerimeter=0;entryX=0.5;entryY=0;entryDx=0;entryDy=0;fontSize=12;" edge="1" parent="1" source="93" target="195">
                    <mxGeometry relative="1" as="geometry"/>
                </mxCell>
                <mxCell id="93" value="начало" style="html=1;dashed=0;whitespace=wrap;shape=mxgraph.dfd.start" vertex="1" parent="1">
                    <mxGeometry x="1045.6200000000001" y="9" width="80" height="30" as="geometry"/>
                </mxCell>
                <mxCell id="162" style="edgeStyle=none;rounded=0;html=1;entryX=0.5;entryY=0;entryDx=0;entryDy=0;" edge="1" parent="1" source="156" target="167">
                    <mxGeometry relative="1" as="geometry">
                        <mxPoint x="1056.2583333333334" y="431" as="targetPoint"/>
                    </mxGeometry>
                </mxCell>
                <mxCell id="188" style="edgeStyle=none;rounded=0;html=1;exitX=1;exitY=0.5;exitDx=0;exitDy=0;entryX=0.5;entryY=0;entryDx=0;entryDy=0;" edge="1" parent="1" source="156" target="163">
                    <mxGeometry relative="1" as="geometry">
                        <mxPoint x="1580.2857142857147" y="446.7142857142858" as="targetPoint"/>
                        <Array as="points">
                            <mxPoint x="1474" y="436"/>
                        </Array>
                    </mxGeometry>
                </mxCell>
                <mxCell id="156" value="I = 1, K, 1" style="shape=hexagon;perimeter=hexagonPerimeter2;whiteSpace=wrap;html=1;size=0.25" vertex="1" parent="1">
                    <mxGeometry x="997.3099999999997" y="411" width="176.63" height="50" as="geometry"/>
                </mxCell>
                <mxCell id="206" style="edgeStyle=none;rounded=0;html=1;exitX=0.5;exitY=1;exitDx=0;exitDy=0;entryX=0.5;entryY=0;entryDx=0;entryDy=0;" edge="1" parent="1" source="163" target="205">
                    <mxGeometry relative="1" as="geometry"/>
                </mxCell>
                <mxCell id="163" value="Вывод пути и его расстояния" style="shape=parallelogram;perimeter=parallelogramPerimeter;whiteSpace=wrap;html=1;dashed=0;fillColor=none;" vertex="1" parent="1">
                    <mxGeometry x="1401" y="479" width="146" height="70" as="geometry"/>
                </mxCell>
                <mxCell id="164" style="edgeStyle=none;html=1;" edge="1" parent="1" source="165" target="169">
                    <mxGeometry relative="1" as="geometry">
                        <mxPoint x="1085.5" y="761" as="targetPoint"/>
                    </mxGeometry>
                </mxCell>
                <mxCell id="165" value="построить связь до &lt;br&gt;достопримечательности" style="html=1;dashed=0;whitespace=wrap;" vertex="1" parent="1">
                    <mxGeometry x="969.81" y="567" width="231.62" height="50" as="geometry"/>
                </mxCell>
                <mxCell id="166" style="edgeStyle=none;rounded=0;html=1;" edge="1" parent="1" source="167" target="165">
                    <mxGeometry relative="1" as="geometry">
                        <mxPoint x="1083.6180357142857" y="584" as="targetPoint"/>
                    </mxGeometry>
                </mxCell>
                <mxCell id="167" value="id достопримечательностей" style="shape=hexagon;perimeter=hexagonPerimeter2;whiteSpace=wrap;html=1;size=0.25" vertex="1" parent="1">
                    <mxGeometry x="997.3199999999998" y="489" width="176.63" height="50" as="geometry"/>
                </mxCell>
                <mxCell id="168" style="edgeStyle=none;rounded=0;html=1;" edge="1" parent="1" source="169" target="174">
                    <mxGeometry relative="1" as="geometry"/>
                </mxCell>
                <mxCell id="169" value="сохранить путь;&lt;br&gt;&quot;удалить&quot; id использованной &lt;br&gt;достопримечательности" style="html=1;dashed=0;whitespace=wrap;" vertex="1" parent="1">
                    <mxGeometry x="969.82" y="640" width="231.62" height="50" as="geometry"/>
                </mxCell>
                <mxCell id="170" style="edgeStyle=none;rounded=0;html=1;entryX=0;entryY=0.5;entryDx=0;entryDy=0;" edge="1" parent="1" source="174" target="167">
                    <mxGeometry relative="1" as="geometry">
                        <Array as="points">
                            <mxPoint x="906" y="751"/>
                            <mxPoint x="908" y="516"/>
                        </Array>
                    </mxGeometry>
                </mxCell>
                <mxCell id="171" value="нет" style="edgeLabel;html=1;align=center;verticalAlign=middle;resizable=0;points=[];" vertex="1" connectable="0" parent="170">
                    <mxGeometry x="-0.7047" y="1" relative="1" as="geometry">
                        <mxPoint x="33" y="-4" as="offset"/>
                    </mxGeometry>
                </mxCell>
                <mxCell id="172" style="edgeStyle=none;rounded=0;html=1;" edge="1" parent="1" source="174" target="181">
                    <mxGeometry relative="1" as="geometry">
                        <mxPoint x="1080.2919047619048" y="846" as="targetPoint"/>
                    </mxGeometry>
                </mxCell>
                <mxCell id="173" value="да" style="edgeLabel;html=1;align=center;verticalAlign=middle;resizable=0;points=[];" vertex="1" connectable="0" parent="172">
                    <mxGeometry x="-0.5262" y="-2" relative="1" as="geometry">
                        <mxPoint as="offset"/>
                    </mxGeometry>
                </mxCell>
                <mxCell id="225" style="edgeStyle=none;rounded=0;html=1;entryX=0;entryY=0.5;entryDx=0;entryDy=0;fontSize=16;exitX=1;exitY=0.5;exitDx=0;exitDy=0;" edge="1" parent="1" source="181" target="224">
                    <mxGeometry relative="1" as="geometry"/>
                </mxCell>
                <mxCell id="228" value="нет" style="edgeLabel;html=1;align=center;verticalAlign=middle;resizable=0;points=[];fontSize=12;" vertex="1" connectable="0" parent="225">
                    <mxGeometry x="-0.3913" y="-2" relative="1" as="geometry">
                        <mxPoint as="offset"/>
                    </mxGeometry>
                </mxCell>
                <mxCell id="174" value="все достопримечательности &lt;br&gt;использованы?" style="shape=rhombus;html=1;dashed=0;whitespace=wrap;perimeter=rhombusPerimeter;" vertex="1" parent="1">
                    <mxGeometry x="988.88" y="712" width="193.5" height="78" as="geometry"/>
                </mxCell>
                <mxCell id="177" style="edgeStyle=none;rounded=0;html=1;" edge="1" parent="1" source="181" target="183">
                    <mxGeometry relative="1" as="geometry"/>
                </mxCell>
                <mxCell id="178" value="да" style="edgeLabel;html=1;align=center;verticalAlign=middle;resizable=0;points=[];" vertex="1" connectable="0" parent="177">
                    <mxGeometry x="-0.6092" y="1" relative="1" as="geometry">
                        <mxPoint as="offset"/>
                    </mxGeometry>
                </mxCell>
                <mxCell id="181" value="путь уникален?" style="shape=rhombus;html=1;dashed=0;whitespace=wrap;perimeter=rhombusPerimeter;" vertex="1" parent="1">
                    <mxGeometry x="992" y="830" width="193.5" height="78" as="geometry"/>
                </mxCell>
                <mxCell id="214" style="edgeStyle=none;rounded=0;html=1;" edge="1" parent="1" source="183" target="213">
                    <mxGeometry relative="1" as="geometry"/>
                </mxCell>
                <mxCell id="183" value="записать путь в множество&lt;br&gt;для&amp;nbsp;записи уникальных путей" style="html=1;dashed=0;whitespace=wrap;" vertex="1" parent="1">
                    <mxGeometry x="972.9399999999998" y="942" width="231.62" height="50" as="geometry"/>
                </mxCell>
                <mxCell id="192" style="edgeStyle=none;rounded=0;html=1;exitX=0.5;exitY=1;exitDx=0;exitDy=0;entryX=0.5;entryY=0;entryDx=0;entryDy=0;" edge="1" parent="1" source="191" target="156">
                    <mxGeometry relative="1" as="geometry">
                        <mxPoint x="1080.4386363636363" y="345" as="targetPoint"/>
                    </mxGeometry>
                </mxCell>
                <mxCell id="208" style="edgeStyle=none;rounded=0;html=1;" edge="1" parent="1" source="191" target="239">
                    <mxGeometry relative="1" as="geometry">
                        <mxPoint x="949" y="360" as="targetPoint"/>
                    </mxGeometry>
                </mxCell>
                <mxCell id="191" value="L = 1, M, 1;&lt;br&gt;id гостиниц" style="shape=hexagon;perimeter=hexagonPerimeter2;whiteSpace=wrap;html=1;size=0.25" vertex="1" parent="1">
                    <mxGeometry x="997.31" y="335" width="176.63" height="50" as="geometry"/>
                </mxCell>
                <mxCell id="244" style="edgeStyle=none;rounded=0;html=1;entryX=0.5;entryY=0;entryDx=0;entryDy=0;fontSize=12;" edge="1" parent="1" source="195" target="240">
                    <mxGeometry relative="1" as="geometry"/>
                </mxCell>
                <mxCell id="195" value="инициализация матрицы&lt;br&gt;расстояний" style="html=1;dashed=0;whitespace=wrap;" vertex="1" parent="1">
                    <mxGeometry x="1002.1199999999998" y="60" width="167" height="50" as="geometry"/>
                </mxCell>
                <mxCell id="246" style="edgeStyle=none;rounded=0;html=1;exitX=0.5;exitY=1;exitDx=0;exitDy=0;entryX=0.5;entryY=0;entryDx=0;entryDy=0;fontSize=12;" edge="1" parent="1" source="198" target="233">
                    <mxGeometry relative="1" as="geometry"/>
                </mxCell>
                <mxCell id="198" value="K = N!&lt;br&gt;Q = 99999" style="html=1;dashed=0;whitespace=wrap;fillColor=none;" vertex="1" parent="1">
                    <mxGeometry x="1035.62" y="198" width="100" height="50" as="geometry"/>
                </mxCell>
                <mxCell id="230" style="edgeStyle=none;rounded=0;html=1;entryX=1;entryY=0.5;entryDx=0;entryDy=0;fontSize=12;exitX=1;exitY=0.5;exitDx=0;exitDy=0;" edge="1" parent="1" source="205" target="191">
                    <mxGeometry relative="1" as="geometry">
                        <Array as="points">
                            <mxPoint x="1612" y="620"/>
                            <mxPoint x="1605" y="365"/>
                        </Array>
                    </mxGeometry>
                </mxCell>
                <mxCell id="205" value="&quot;удалить&quot; id использованной &lt;br&gt;гостиницы" style="html=1;dashed=0;whitespace=wrap;" vertex="1" parent="1">
                    <mxGeometry x="1360" y="594" width="231.62" height="50" as="geometry"/>
                </mxCell>
                <mxCell id="216" style="edgeStyle=none;rounded=0;html=1;" edge="1" parent="1" source="213" target="215">
                    <mxGeometry relative="1" as="geometry"/>
                </mxCell>
                <mxCell id="217" value="да" style="edgeLabel;html=1;align=center;verticalAlign=middle;resizable=0;points=[];" vertex="1" connectable="0" parent="216">
                    <mxGeometry x="-0.5693" y="1" relative="1" as="geometry">
                        <mxPoint as="offset"/>
                    </mxGeometry>
                </mxCell>
                <mxCell id="247" style="edgeStyle=none;rounded=0;html=1;entryX=0.5;entryY=1;entryDx=0;entryDy=0;fontSize=12;" edge="1" parent="1" source="213" target="224">
                    <mxGeometry relative="1" as="geometry">
                        <Array as="points">
                            <mxPoint x="1284" y="1050"/>
                        </Array>
                    </mxGeometry>
                </mxCell>
                <mxCell id="248" value="нет" style="edgeLabel;html=1;align=center;verticalAlign=middle;resizable=0;points=[];fontSize=12;" vertex="1" connectable="0" parent="247">
                    <mxGeometry x="-0.8408" y="-1" relative="1" as="geometry">
                        <mxPoint as="offset"/>
                    </mxGeometry>
                </mxCell>
                <mxCell id="213" value="текущее расстояние пути &amp;lt; Q?" style="shape=rhombus;html=1;dashed=0;whitespace=wrap;perimeter=rhombusPerimeter;" vertex="1" parent="1">
                    <mxGeometry x="993.9999999999999" y="1014" width="193.5" height="78" as="geometry"/>
                </mxCell>
                <mxCell id="250" style="edgeStyle=none;rounded=0;html=1;exitX=0.5;exitY=1;exitDx=0;exitDy=0;entryX=0.5;entryY=0;entryDx=0;entryDy=0;fontSize=12;" edge="1" parent="1" source="215" target="249">
                    <mxGeometry relative="1" as="geometry"/>
                </mxCell>
                <mxCell id="215" value="Q = текущее расстояние;&lt;br&gt;сохранить результат&lt;br&gt;(путь и расстояние пути)" style="html=1;dashed=0;whitespace=wrap;" vertex="1" parent="1">
                    <mxGeometry x="974.94" y="1126" width="231.62" height="50" as="geometry"/>
                </mxCell>
                <mxCell id="226" style="edgeStyle=none;rounded=0;html=1;entryX=1;entryY=0.5;entryDx=0;entryDy=0;fontSize=16;" edge="1" parent="1" source="224" target="167">
                    <mxGeometry relative="1" as="geometry">
                        <Array as="points">
                            <mxPoint x="1278" y="514"/>
                        </Array>
                    </mxGeometry>
                </mxCell>
                <mxCell id="224" value="сбросить путь" style="html=1;dashed=0;whitespace=wrap;fillColor=#a20025;fontColor=#ffffff;strokeColor=#6F0000;" vertex="1" parent="1">
                    <mxGeometry x="1234" y="844" width="94" height="50" as="geometry"/>
                </mxCell>
                <mxCell id="252" style="edgeStyle=none;rounded=0;html=1;fontSize=12;" edge="1" parent="1" source="233" target="191">
                    <mxGeometry relative="1" as="geometry"/>
                </mxCell>
                <mxCell id="233" value="инициализация множества для&amp;nbsp;&lt;br&gt;записи уникальных путей" style="html=1;dashed=0;whitespace=wrap;" vertex="1" parent="1">
                    <mxGeometry x="969.8099999999998" y="265" width="231.62" height="50" as="geometry"/>
                </mxCell>
                <mxCell id="239" value="конец" style="html=1;dashed=0;whitespace=wrap;shape=mxgraph.dfd.start" vertex="1" parent="1">
                    <mxGeometry x="863.0000000000001" y="343" width="80" height="30" as="geometry"/>
                </mxCell>
                <mxCell id="245" style="edgeStyle=none;rounded=0;html=1;entryX=0.5;entryY=0;entryDx=0;entryDy=0;fontSize=12;" edge="1" parent="1" source="240" target="198">
                    <mxGeometry relative="1" as="geometry"/>
                </mxCell>
                <mxCell id="240" value="Ввод N, M" style="shape=parallelogram;perimeter=parallelogramPerimeter;whiteSpace=wrap;html=1;dashed=0;fillColor=none;" vertex="1" parent="1">
                    <mxGeometry x="1035.62" y="130" width="100" height="50" as="geometry"/>
                </mxCell>
                <mxCell id="251" style="edgeStyle=none;rounded=0;html=1;entryX=0;entryY=0.5;entryDx=0;entryDy=0;fontSize=12;" edge="1" parent="1" source="249" target="156">
                    <mxGeometry relative="1" as="geometry">
                        <Array as="points">
                            <mxPoint x="879" y="1227"/>
                            <mxPoint x="879" y="439"/>
                        </Array>
                    </mxGeometry>
                </mxCell>
                <mxCell id="249" value="сбросить путь" style="html=1;dashed=0;whitespace=wrap;" vertex="1" parent="1">
                    <mxGeometry x="1041.75" y="1201" width="94" height="50" as="geometry"/>
                </mxCell>
            </root>
        </mxGraphModel>
    </diagram>
</mxfile>